# xmcd
#
# Track frame offsets:
#	150
#	12889
#	21418
#	31475
#	39924
#	51576
#	63804
#	74678
#	84831
#	92582
#	101583
#	111350
#	124787
#	136541
#	148622
#	164588
#	175006
#
# Disc length: 2572 seconds
#
# Revision: 1
# Processed by: cddbd v1.5.2PL0 Copyright (c) Steve Scherf et al.
# Submitted via: audiograbber 1.83.01
#
DISCID=e20a0a11
DTITLE=Various Artist - Country, unlimited collection [CD 5)
DYEAR=1900
DGENRE=Country
TTITLE0=Johnny Cash - Give my love to Rose
TTITLE1=Johnny Cash - Big river [live]
TTITLE2=Johnny Cash and The Tennessee Two - Ballad of a teenage queen
TTITLE3=Johnny Cash and The Tennessee Two - Country boy
TTITLE4=Johnny Cash and The Tennessee Two - Doin' my time
TTITLE5=Johnny Cash and The Tennessee Two - Home of the blues
TTITLE6=Johnny Cash and The Tennessee Two - I heard that lonesome whistle
TTITLE7=Johnny Cash and The Tennessee Two - I was there when it happened
TTITLE8=Johnny Cash and The Tennessee Two - If the Good Lord's willing
TTITLE9=Johnny Cash and The Tennessee Two - Remeber me
TTITLE10=Johnny Cash and The Tennessee Two - Rock Island line
TTITLE11=Kenny Rogers - Shine on Ruby mountain
TTITLE12=Kenny Rogers - Poem for my little lady
TTITLE13=Kenny Rogers - What am I gonna do
TTITLE14=Kenny Rogers - Tulsa turnaround
TTITLE15=Kenny Rogers - Where does Rosie go
TTITLE16=Kenny Rogers - Something's burning
EXTD=
EXTT0=
EXTT1=
EXTT2=
EXTT3=
EXTT4=
EXTT5=
EXTT6=
EXTT7=
EXTT8=
EXTT9=
EXTT10=
EXTT11=
EXTT12=
EXTT13=
EXTT14=
EXTT15=
EXTT16=
PLAYORDER=
